<?xml version="1.0" encoding="UTF-8" ?>

<svg width="24" height="24" viewBox="0 0 512 512" xmlns="http://www.w3.org/2000/svg">
    <path d="M288,21.33A21.33,21.33,0,0,1,309.33,0h64a21.33,21.33,0,0,1,21.33,21.33v64a21.33,21.33,0,1,1-42.67,0V42.67H309.33A21.33,21.33,0,0,1,288,21.33ZM495.08,505.75a21.33,21.33,0,0,1-30.17,0l-79.07-79.07A148.2,148.2,0,0,1,309.33,448C227,448,160,381,160,298.67s67-149.33,149.33-149.33,149.33,67,149.33,149.33a148.59,148.59,0,0,1-39.58,100.92l76,76A21.33,21.33,0,0,1,495.08,505.75ZM373.33,298.67A21.33,21.33,0,0,0,352,277.33H330.67V256A21.33,21.33,0,0,0,288,256v21.33H266.67a21.33,21.33,0,1,0,0,42.67H288v21.33a21.33,21.33,0,1,0,42.67,0V320H352A21.33,21.33,0,0,0,373.33,298.67ZM96,0H32A21.33,21.33,0,0,0,10.67,21.33v64a21.33,21.33,0,1,0,42.67,0V42.67H96A21.33,21.33,0,0,0,96,0Zm0,341.33H53.33V298.67a21.33,21.33,0,1,0-42.67,0v64A21.33,21.33,0,0,0,32,384H96a21.33,21.33,0,0,0,0-42.67ZM32,234.67a21.33,21.33,0,0,0,21.33-21.33V170.67a21.33,21.33,0,1,0-42.67,0v42.67A21.33,21.33,0,0,0,32,234.67Zm149.33-192H224A21.33,21.33,0,0,0,224,0H181.33a21.33,21.33,0,0,0,0,42.67Z"/>
</svg>
